<svg xmlns="http://www.w3.org/2000/svg" width="653" height="164" viewBox="0 0 653 164" fill="none">
  <path d="M303.608 163.187C288.025 159.966 272.399 156.94 256.868 153.492C183.228 137.143 109.551 120.984 35.1749 108.248C23.7071 106.284 12.2149 104.464 0.399414 102.296C10.8223 100.339 21.563 98.5449 32.3407 97.0107C55.7168 93.6828 79.1122 90.491 102.498 87.2344C105.28 86.8471 108.053 86.4029 111.598 85.9509C113.465 85.6233 114.564 85.3299 116.092 85.039C120.24 84.3877 123.958 83.7342 128.107 83.0799C140.61 80.1445 152.682 77.2098 165.118 74.1964C167.221 73.0902 168.961 72.0628 171.019 70.9012C172.428 70.4332 173.519 70.0993 174.995 69.6939C180.35 67.8032 184.399 67.5 190.333 64.0391C190.959 63.8641 190.673 63.939 190.959 63.8641C192.158 63.4309 193.07 63.0727 194.375 62.7962L197.899 59.5L202.899 56L216.399 47.5L223.899 43.5L231.817 39.5811C233.972 38.3892 235.811 37.2111 237.822 36.5575C245.884 33.9365 253.998 31.478 261.942 29.2341L274.277 26.3569C281.401 24.6671 288.092 23.3407 294.609 21.4236C309.833 16.9459 325.218 13.7714 341.177 15.1C344.716 15.3947 348.605 16.0723 351.524 17.8799C354.288 19.5914 356.467 20.0155 359.332 19.0426C360.888 18.5144 362.555 18.1034 364.186 18.0428C383.418 17.3285 402.649 16.4968 421.889 16.1484C427.797 16.0415 433.732 18.1104 440.069 15.999C443.276 15.2898 446.057 14.5496 449.138 14L502 7.5L512 0.5L626.681 67.0518L653 78.5L648.5 93L477.296 114.587C477.374 117.59 479.728 120.517 480.967 123.518C481.392 124.548 481.522 125.699 481.501 125.614C475.696 128.517 469.923 130.526 465.215 133.986C459.626 138.094 463.31 145.303 461.002 151.197C456.953 151.545 452.543 151.924 447.445 152.662C442.623 153.307 438.491 153.642 434.354 153.87C409.658 155.232 384.956 156.489 360.266 157.945C345.029 158.844 329.802 159.948 314.585 161.152C310.896 161.443 307.265 162.488 303.608 163.187Z" fill="#BC976C"/>
</svg>
