<svg xmlns="http://www.w3.org/2000/svg" width="1246" height="326" viewBox="0 0 1246 326" fill="none">
  <path d="M1.49756 1.03516C13.0074 1.78845 28.8597 3.95665 39.814 6.00488C136.186 24.0244 231.596 48.0198 326.759 73.5859C403.037 94.0784 479.377 114.31 556.721 128.475L556.729 128.476L556.738 128.477L739.015 155.815L739.031 155.817L739.046 155.818C779.058 159.304 819.094 163.392 859.192 165.139C913.824 167.519 968.524 167.948 1023.61 169.332H1023.61C1025.55 169.369 1027.04 169.283 1029.11 169.158C1041.36 168.86 1053.1 168.99 1064.77 168.278C1112.46 165.37 1160.13 162.259 1207.8 159.1C1220.25 158.275 1232.68 157.026 1245.1 155.964C1245.1 186.363 1245.09 216.762 1244.65 247.785C1244.27 248.041 1243.95 248.178 1243.68 248.278C1243.59 248.308 1243.51 248.335 1243.43 248.362C1243.35 248.389 1243.26 248.417 1243.18 248.445C1243.02 248.503 1242.85 248.573 1242.67 248.676L1242.43 248.821V325H1.50049C1.49909 228.432 1.09244 98.7578 1.49756 1.03516Z" fill="#F1CE9F" stroke="#AF8A61"/>
</svg>