<svg xmlns="http://www.w3.org/2000/svg" width="525" height="231" viewBox="0 0 525 231" fill="none">
  <path d="M524.502 0.65332C524.519 12.3657 524.901 99.3723 524.513 110.117C476.605 123.522 422.262 138.968 377.246 159.492C376.658 159.76 376.164 160.198 375.729 160.633C375.296 161.067 374.948 161.463 374.552 161.831C358.656 166.707 349.373 171.338 340.111 175.953C330.842 180.572 321.593 185.174 305.702 190.017C300.602 191.571 290.407 193.294 279.468 195.053L270.026 196.562C259.076 198.322 248.64 200.077 243.141 201.693C242.027 201.905 241.085 202.056 240.225 202.193C239.577 202.296 238.973 202.392 238.382 202.5L237.794 202.613C211.455 207.944 185.338 214.448 158.86 218.296C130.001 222.49 100.847 224.318 71.7637 226.988C56.4257 228.396 41.0551 229.392 25.3145 230.499C23.9176 230.439 22.7627 230.428 22.1445 230.426C21.131 227.55 20.4356 224.59 19.5518 221.751C18.6481 218.849 17.5591 216.129 15.75 214.094C13.8581 211.966 11.3169 210.536 8.60254 209.29C5.9649 208.079 3.23163 207.065 0.583984 205.733C0.971817 204.204 1.27072 202.623 1.61035 201.165C1.98502 199.556 2.42067 198.044 3.10742 196.696C4.27444 194.406 4.98421 192.285 5.0332 190.107C5.08235 187.923 4.46593 185.729 3.06445 183.294C2.05366 181.538 1.41545 180.102 1.13184 178.934C0.849033 177.769 0.931166 176.924 1.28418 176.292C1.63841 175.658 2.31961 175.143 3.44531 174.754C4.5724 174.365 6.09068 174.122 8.03125 173.999C18.4805 173.337 28.9362 172.597 39.3799 171.809C39.547 171.81 39.7731 171.829 40.457 171.791H40.4688L40.4805 171.789C45.3754 171.288 49.78 170.847 54.623 170.498H54.6299C70.5499 169.131 86.035 167.669 101.863 166.262C102.284 166.245 102.615 166.215 102.945 166.187C103.276 166.158 103.612 166.133 104.059 166.12L104.09 166.118C114.344 165.199 124.162 164.315 133.95 163.14C134.84 163.033 135.648 162.54 136.37 162.02C136.904 161.634 137.38 161.247 137.861 160.897L138.413 160.988C141.698 161.529 145.266 161.578 149.133 161.697H149.151L149.171 161.696C149.603 161.676 149.942 161.638 150.277 161.599C150.612 161.559 150.943 161.518 151.379 161.488L151.392 161.487C156.963 160.964 162.137 160.496 167.27 159.71C167.618 159.657 167.899 159.457 168.117 159.245C168.338 159.03 168.537 158.761 168.714 158.494C168.786 158.386 168.855 158.272 168.926 158.158C168.994 158.312 169.065 158.455 169.144 158.581C169.247 158.746 169.371 158.904 169.52 159.023C169.666 159.141 169.882 159.256 170.146 159.23H170.146C180.205 158.25 190.261 157.22 200.306 156.064C200.558 156.035 200.701 155.86 200.759 155.776C200.826 155.679 200.873 155.568 200.906 155.474C200.975 155.281 201.03 155.038 201.076 154.799C201.085 154.752 201.092 154.703 201.101 154.654C202.576 155.374 204.229 155.944 205.849 155.764C226.093 153.504 245.16 143.218 264.013 132.261C282.901 121.283 301.568 109.636 321.127 104.483L321.213 104.461L321.285 104.41C368.581 71.5254 392.527 60.0338 410.545 53.0371C428.555 46.0436 440.771 43.4999 464.442 28.5977C467.899 27.612 472.555 25.588 477.785 23.0645C483.057 20.5209 488.944 17.4555 494.823 14.4043C500.706 11.3512 506.583 8.31167 511.846 5.8125C516.8 3.46011 521.182 1.59938 524.502 0.65332Z" fill="#F1CE9F"/>
</svg>