<svg xmlns="http://www.w3.org/2000/svg" width="525" height="220" viewBox="0 0 525 220" fill="none">
  <path id='sandDune4' d="M524.487 0.652344C524.322 6.17927 522.37 27.1063 520.362 48.1494C518.318 69.5772 516.221 91.1021 515.925 96.4033C468.016 109.832 422.238 127.978 377.246 148.492C376.658 148.76 376.164 149.198 375.729 149.633C375.296 150.067 374.948 150.463 374.552 150.831C358.656 155.707 349.373 160.338 340.111 164.953C330.842 169.572 321.593 174.174 305.702 179.017C300.602 180.571 290.407 182.294 279.468 184.053L270.026 185.562C259.076 187.322 248.64 189.077 243.141 190.693C242.027 190.905 241.085 191.056 240.225 191.193C239.577 191.296 238.973 191.392 238.382 191.5L237.794 191.613C211.456 196.944 185.338 203.448 158.86 207.296C130.001 211.49 100.847 213.318 71.7637 215.988C56.4288 217.396 41.0614 218.391 25.3242 219.498C23.923 219.437 22.7641 219.428 22.1445 219.426C21.131 216.55 20.4356 213.59 19.5518 210.751C18.6481 207.849 17.5591 205.129 15.75 203.094C13.8581 200.966 11.3169 199.536 8.60254 198.29C5.96464 197.079 3.23089 196.066 0.583008 194.733C0.970872 193.204 1.2707 191.623 1.61035 190.165C1.98503 188.556 2.42067 187.044 3.10742 185.696C4.27444 183.406 4.98421 181.285 5.0332 179.107C5.08235 176.923 4.46592 174.729 3.06445 172.294C2.05341 170.537 1.41672 169.109 1.13477 167.951C0.853597 166.797 0.937754 165.968 1.29004 165.352C1.64434 164.732 2.3263 164.228 3.45605 163.849C4.58618 163.469 6.10687 163.232 8.04883 163.109C18.4999 162.448 28.9424 161.597 39.3809 160.809C39.5478 160.81 39.7744 160.829 40.457 160.791H40.4688L40.4805 160.789C45.3754 160.288 49.78 159.847 54.623 159.498H54.6299C70.5499 158.131 86.035 156.669 101.863 155.262C102.284 155.245 102.615 155.215 102.945 155.187C103.276 155.158 103.612 155.132 104.059 155.119H104.074L104.09 155.118C114.344 154.199 124.162 153.315 133.95 152.14C134.84 152.033 135.648 151.54 136.37 151.02C136.904 150.634 137.38 150.247 137.861 149.897L138.413 149.988C141.698 150.529 145.266 150.578 149.133 150.697H149.151L149.171 150.696C149.603 150.676 149.942 150.638 150.277 150.599C150.612 150.559 150.943 150.518 151.379 150.488L151.392 150.487C156.963 149.964 162.137 149.496 167.27 148.71C167.618 148.657 167.899 148.457 168.117 148.245C168.338 148.03 168.537 147.761 168.714 147.494C168.786 147.386 168.855 147.272 168.926 147.158C168.994 147.312 169.065 147.455 169.144 147.581C169.247 147.746 169.371 147.904 169.52 148.023C169.666 148.141 169.882 148.256 170.146 148.23H170.146C180.205 147.25 190.261 146.22 200.306 145.064C200.558 145.035 200.701 144.86 200.759 144.776C200.826 144.679 200.873 144.568 200.906 144.474C200.975 144.281 201.03 144.038 201.076 143.799C201.085 143.752 201.092 143.703 201.101 143.654C202.576 144.374 204.229 144.944 205.849 144.764C226.03 142.511 246.427 136.499 266.665 129.769C286.92 123.032 306.999 115.584 326.619 110.415L326.705 110.393L326.777 110.342C421.369 44.572 417.201 47.3567 464.441 17.5986C477.955 13.7805 510.406 4.34415 524.487 0.652344Z" fill="#F1CE9F" stroke="black"/>
</svg>