<svg xmlns="http://www.w3.org/2000/svg" width="1227" height="307" viewBox="0 0 1227 307" fill="none">
  <path d="M-12.4941 0.53418C-1.13691 1.27265 9.8565 2.95595 20.8145 5.00488C117.187 23.0244 212.596 47.0198 307.759 72.5859C384.037 93.0785 460.377 113.31 537.722 127.475L537.737 127.477L720.016 154.815L720.03 154.817L720.046 154.818C760.057 158.304 800.095 162.392 840.192 164.139C894.824 166.519 949.524 166.948 1004.61 168.332H1004.61C1006.54 168.369 1008.04 168.283 1010.11 168.158C1022.36 167.86 1034.1 167.99 1045.77 167.278C1093.46 164.37 1141.13 161.259 1188.8 158.1C1201.25 157.275 1213.68 156.026 1226.1 154.964C1226.1 185.363 1226.09 215.762 1225.65 246.785C1225.27 247.041 1224.95 247.178 1224.67 247.278C1224.59 247.308 1224.51 247.335 1224.43 247.362C1224.35 247.389 1224.26 247.417 1224.18 247.445C1224.02 247.503 1223.85 247.573 1223.67 247.676L1223.43 247.821V310.502L4.09668 316.997C4.0674 268.701 -0.168596 213.983 -4.35254 159.147C-8.53659 104.311 -12.6667 49.3545 -12.4941 0.53418Z" fill="#F1CE9F" stroke="#AF8A61"/>
</svg>